<?xml version="1.0" encoding="UTF-8"?>
<svg id="_レイヤー_1" xmlns="http://www.w3.org/2000/svg" version="1.1" viewBox="0 0 346.79 915.52">
  <!-- Generator: Adobe Illustrator 29.7.1, SVG Export Plug-In . SVG Version: 2.1.1 Build 8)  -->
  <defs>
    <style>
      .st0, .st1 {
        fill: #221714;
        stroke: #fff;
        stroke-miterlimit: 10;
      }

      .st1 {
        stroke-width: 2px;
      }
    </style>
  </defs>
  <g>
    <path class="st1" d="M263.12,26.9c.58.07,1.22.36,1.8.79.72.65,1.51,1.51,2.23,2.45.36.5.43,1.08.29,1.73-.22.94-.65,1.73-1.22,2.66-.29.72-.86.94-1.66.58-1.73-.58-3.38-1.01-4.82-1.37-.29,7.34-1.08,14.69-2.38,22.18l2.16,1.01c.5-3.02,1.51-6.26,3.1-9.79.14,4.03.72,7.92,1.58,11.67.43,1.58.5,3.31.29,5.11-.14.94-.58,1.73-1.3,2.3-.58.72-1.37,1.22-2.3,1.58-.36.22-.86.29-1.37.14-.58-.22-1.01-.5-1.3-1.01-.86-1.73-1.8-3.24-2.66-4.39-1.01,3.1-2.59,6.05-4.68,8.93-.72,1.08-1.66,2.02-2.81,2.81-.79.65-1.58.65-2.45.07l-2.23-1.37c-.79-.58-1.44-1.08-1.8-1.73-.65-1.58-1.01-3.24-1.01-5.04.79.22,1.51.36,2.16.36,1.08.07,1.8-.29,2.23-1.08,2.45-4.75,4.46-9.29,5.98-13.75,2.52-8.06,3.17-16.34,1.87-24.77-.43-2.45-1.15-4.54-2.09-6.26-.5-.86-.72-1.8-.5-2.81.36-2.16.94-4.25,1.66-6.41.07-.5.43-.86.94-1.15.5-.29,1.01-.29,1.51,0,1.3.36,2.66.79,3.82,1.37,1.15.58,1.73,1.44,1.73,2.74-.07,2.45-.07,4.68.07,6.62.14,1.73.14,3.53.07,5.54.72-.07,1.8.07,3.1.29h-.01ZM249.08,34.82c.65.58.86,1.22.79,1.87-.22,2.16-.29,3.89-.29,5.33.07,2.59-.65,4.9-2.16,6.91-.36.36-.72.5-1.08.5s-.72-.14-1.01-.5c-1.58-2.16-2.81-4.54-3.89-7.06-.36-1.22-.5-2.38-.36-3.53.36-2.3,1.22-4.61,2.38-6.77.22-.43.58-.65,1.01-.65s.79.22,1.08.58l3.53,3.31h0ZM277.38,15.45c-.36-.58-.86-1.44-1.58-2.66-.58-.72-.5-1.44.29-2.09.79-.72,1.66-1.15,2.66-1.37,1.15-.22,2.3-.14,3.31.29,2.09.58,3.82,1.66,5.18,3.1.79.79,1.08,1.73.86,2.67,0,.07,0,.36-.07.72s-.14.5-.14.29c.94-.36,2.02-.65,3.17-1.01,1.08-.29,2.09-.14,2.81.58,1.66,1.37,3.1,2.81,4.39,4.54-.79.94-1.58,1.8-2.59,2.45-1.22.07-2.66.14-4.46.36,1.58.5,2.95,1.66,4.32,3.46.5.58.72,1.15.5,1.58.86-.14,1.66-.22,2.45-.14.5.07.94.36,1.37.72l1.01,1.66c.22.72.29,1.37.22,2.02-.07.5-.22.86-.58,1.37-.36.65-.86.94-1.58.86-2.45,0-5.11.07-7.78.14l-2.52,3.74,1.15-.07c.79-.07,1.3.22,1.66.79.79.94,1.44,2.02,1.87,3.24.29,1.01,0,1.8-.79,2.3-2.09,1.37-4.32,2.45-6.48,3.1-1.22,1.3-2.02,2.3-2.52,2.95.94.22,1.66.72,2.3,1.66.72.79.72,1.51,0,2.23-1.08,1.44-1.8,2.88-2.45,4.54-.5,1.66-.72,3.38-.65,4.97.07.65.29,1.3.79,1.8.43.5,1.01.86,1.66,1.08.86.22,1.8.29,2.66.22,2.52-.36,5.4-.86,8.64-1.58,1.22-.36,2.3-1.08,3.1-2.16.72-1.01,1.01-2.16.94-3.46,0-2.59.36-5.11,1.15-7.71h1.3c.65,2.23,1.08,4.32,1.3,6.19.22,1.58.72,3.24,1.44,4.68.86,1.94,1.51,3.89,1.8,5.83.36,1.37-.14,2.45-1.58,3.1-4.83,2.3-10.01,3.38-15.48,3.38-2.09-.07-3.89-.43-5.54-1.22-2.59-1.37-4.82-2.95-6.84-4.97-1.22-1.44-2.02-3.02-2.38-4.68-.29-1.58-.29-2.95,0-4.03-1.3,2.38-3.17,5.76-5.83,10.22-.86,1.66-2.02,3.38-3.17,5.04-.5.72-1.08,1.15-1.87,1.22-.94.14-1.66.14-2.3.07-.79-.14-1.51-.65-2.02-1.44-.58-1.08-.86-2.3-.94-3.53,1.58-1.08,2.81-2.38,3.6-3.67l9.5-16.56c-2.09.58-4.32.79-6.77.65-.43,0-.79-.22-1.01-.65s-.22-.79-.07-1.08c.36-1.01.94-1.87,1.58-2.59.5-.5,1.08-.79,1.66-.79,1.37-.14,2.74-.43,4.1-.94,1.58-.65,2.95-1.58,4.03-2.81,2.52-3.02,4.75-5.76,6.62-8.21-2.45.22-5.04.65-7.78,1.37.36.79.65,1.73,1.01,2.88.14.79-.07,1.58-.58,2.23-.65.94-1.44,1.8-2.38,2.52-.72.36-1.44.22-2.02-.43-.79-2.16-1.37-4.03-1.66-5.62-.94.22-2.38.58-4.1,1.22l-1.87-.72.79-1.8c.14-.72.58-1.15,1.3-1.22,1.58-.65,2.74-1.15,3.31-1.44v-3.31c.07-1.3.65-2.45,1.66-3.31-1.22,1.01-1.01,1.51.58,1.51h2.09l-.36-.29c.5.36.72.86.5,1.44-.07.86-.07,1.58.14,2.16l2.88-.94c-.22-1.94-.29-3.82-.07-5.54l-.65.36c-3.17-.36-6.26-.86-9.29-1.66-.79-.29-1.08-.79-.94-1.51l.43-1.37c.07-.79.5-1.15,1.3-1.15,3.74-.36,7.06-1.01,9.79-1.8l.5-3.96h.02ZM284.29,28.99c.94,0,1.51.22,1.73.65.65-.14,1.01-.22.94-.22.22-.43.5-.79.72-1.08.14-.5.22-1.08.22-1.87-.07-.79-.22-1.58-.58-2.23l-1.8.29-1.22,4.46h-.01Z"/>
    <path class="st1" d="M253.02,123.16c.42,1.68,1.38,2.82,3.12,3.42.96.18,2.28.42,3.96.72,2.76.42,5.46,1.14,8.04,2.04,1.74.78,3.3,1.92,4.62,3.48.54.78.78,1.5.72,2.4-.18,1.02-.72,1.68-1.5,2.16-.96.54-1.98.72-3.06.6-2.64-.3-5.16-.72-7.68-1.26-1.86-.54-3.66-1.26-5.28-2.04-2.46-1.44-4.56-3.12-6.36-5.16-.78-1.08-1.26-2.28-1.32-3.48-.06-1.26.24-2.4.9-3.54.72-1.32,2.04-2.34,3.78-2.94-.3,1.26-.24,2.46.06,3.6h0ZM269.76,112.06c-.84.78-1.62,1.5-2.28,2.1-1.5,1.44-3.36,1.98-5.58,1.44-2.52-.66-4.56-2.04-6.18-4.2-.84-1.2-1.2-2.52-1.14-4.14,0-.42.12-.6.42-.78.3-.3.66-.24,1.08.12.54.36,1.02.66,1.62.96.9.3,1.8.3,2.76,0,1.98-.78,3.84-1.5,5.4-2.28-.72-1.74-1.32-3.66-1.8-5.88-2.82-.24-5.04-1.56-6.72-3.9-.36-.36-.42-.72-.3-1.14,0-.36.24-.72.66-.96,1.62-.9,3.18-1.38,4.74-1.5-.12-.12-.42-.42-.9-.96-.24-.36-.6-.6-1.02-.78-.3-.3-.48-.66-.48-.96,0-.36.18-.66.54-.9.96-.48,1.92-.78,2.94-.84,1.2,0,2.52.18,3.72.6,1.38.78,2.4,1.8,3.06,3.18,1.8.84,3.42,1.92,4.74,3.06.42.48.6.96.54,1.44v.72c0,.72-.3,1.2-.9,1.5-.72.3-1.38.48-2.04.54.18,1.08.6,2.22,1.14,3.3l3.36-2.22c.18-.24.24-.42.18-.66-.24-.42-.12-.78.36-1.08.3-.18.66-.18,1.08-.06.42.06.66.24.9.54.66.66,1.08,1.38,1.26,2.28.18,1.02-.06,1.86-.72,2.76-.96,1.08-2.04,2.4-3.24,3.84,1.74,2.22,3.78,4.02,6.12,5.28,2.28,1.26,4.02,3.12,5.16,5.64.24.6.12,1.14-.42,1.56-.78.66-1.74,1.08-2.88,1.26l-1.2-.54c-.9-.3-1.68-.54-2.34-.66-3.24-.42-6.72-1.02-10.38-1.92,1.68-.6,2.88-.9,3.42-.96-1.8-1.08-3.3-2.7-4.68-4.8h0Z"/>
    <path class="st1" d="M243.42,178.84l.72-.72.78.66c1.14.42,2.22.42,3.36.12,2.22-.54,4.44-1.14,6.6-1.92l3.12-9.3c.3-.54.24-1.08-.18-1.68l-.42-1.14c-.3-.6-.18-1.26.3-1.86.54-.66,1.2-1.26,1.92-1.74,1.02-.3,1.92-.24,2.64.3,1.74,1.2,3.12,2.64,4.2,4.32.78,1.02.9,2.22.42,3.48-.9,2.22-1.38,3.3-1.38,3.24,1.02.18,1.86.66,2.64,1.44.66.48.9,1.14.78,1.92-.12,1.14-.66,2.04-1.62,2.7-1.68,1.44-3.6,2.88-5.76,4.14-2.52,7.38-4.38,14.94-5.4,22.74-.06,1.98-.12,3.72-.12,5.22l-1.26,1.2c-1.32.3-2.58,0-3.78-.72-1.2-.66-1.8-1.62-1.86-2.88-.18-1.5-.18-2.94,0-4.44.84-6.18,1.92-11.76,3.06-16.86-.96.42-2.22.6-3.72.54-2.04-.24-3.54-1.2-4.38-2.94-1.02-1.86-1.26-3.78-.66-5.82h0ZM267,188.92c0-.3.12-.6.3-.9,2.46-2.52,5.28-4.56,8.4-6.06l7.14-3.24c.72-.48,1.56-.48,2.4-.06,1.68.66,3.24,1.68,4.62,3,.42.36.66.9.66,1.56s-.3,1.14-.84,1.62c-2.16,1.5-4.5,2.64-7.08,3.6-3.66,1.14-7.26,2.04-10.68,2.58-1.26.24-2.34,0-3.3-.72l-1.2-.66c-.3-.3-.42-.48-.42-.72ZM273.54,197.56c0-1.44.36-2.94,1.08-4.26l1.02.96c.42,1.5,1.26,2.64,2.46,3.54,1.08.66,2.34,1.2,3.84,1.56,3.84.24,7.44.9,10.8,1.98.78.18,1.2.6,1.32,1.38l.18.78c.3.66.18,1.2-.3,1.74-1.14,1.38-2.52,2.34-4.38,3-4.02,1.02-7.68.3-11.1-1.98-1.68-1.38-2.94-2.88-3.84-4.56-.72-1.26-1.08-2.64-1.08-4.14h0Z"/>
    <path class="st1" d="M267.9,251.56c-2.76.84-5.88,1.62-9.3,2.28-2.4.42-4.86.42-7.26,0-1.68-.24-2.94-1.08-3.9-2.4-.6-.78-1.08-1.8-1.44-2.94-.18-.96-.24-1.86-.12-2.88.12-1.26.66-2.28,1.5-3.24.54-.42,1.08-.54,1.68-.24.72.36,1.32.9,1.68,1.68.3.6.78.96,1.44.96,7.38-.3,13.62-.84,18.72-1.74,4.86-.84,9.66-2.16,14.46-4.08.84-.3,1.62-.24,2.52.3,1.74,1.08,3.24,2.58,4.44,4.56.3.6.18,1.14-.3,1.62-.6.48-1.14.78-1.68.96-1.44.36-2.82.96-4.02,1.98-2.46,1.86-4.26,4.2-5.28,7.08-1.26,3.72-2.16,7.26-2.88,10.74-.78,4.14-.54,8.22.72,12.3.3,1.02.72,1.8,1.26,2.34l2.82-2.46c.24,1.98.12,3.84-.36,5.7-.48,1.56-1.56,2.58-3.3,3-.9.3-1.68.24-2.34-.3-3.3-2.16-5.82-5.1-7.56-8.88-.6-1.44-1.02-3-1.14-4.62-.06-1.56.06-3.24.3-4.86.72-4.2,1.8-8.4,3.36-12.48,1.14-2.76,2.46-5.1,3.84-6.96l-7.86,2.58h0Z"/>
    <path class="st1" d="M272.88,326.2c.54,2.1.42,4.14-.42,6.12-2.88,8.76-7.68,16.26-14.28,22.56-1.02,1.02-2.1,1.38-3.48,1.08-1.32-.3-2.64-.72-3.78-1.38-1.26-.6-2.16-1.74-2.82-3.18-.78-2.16-1.02-4.5-.66-6.9.66-3.54,1.98-6.78,3.78-9.54-.72-.6-1.38-1.26-1.92-2.16-.54-.66-.78-1.5-.72-2.52s.42-1.8,1.08-2.46c4.2-4.02,8.94-6.9,14.28-8.58,2.52-.9,5.1-1.38,7.62-1.44,2.34-.06,4.5.24,6.54,1.02,2.46.72,4.56,1.92,6.3,3.48,1.92,1.86,3.3,3.96,4.2,6.3,1.8,4.5,2.46,9.18,1.92,14.04-.54,4.62-2.52,8.52-5.88,11.64-1.86,1.68-3.96,3.06-6.24,4.2-1.02.42-1.86.48-2.64.24-.66-.18-1.38-.18-2.1,0-1.02.18-2.4.48-4.26.96,5.22-6,8.94-12.66,10.98-19.86,1.2-3.9,1.32-7.92.3-11.88-.48-2.52-1.86-4.26-4.26-5.34-.96-.42-2.04-.54-3.18-.24l-1.5.54c.48,1.2.84,2.28,1.14,3.3h0ZM257.04,331.24c-1.5,1.02-2.46,2.46-2.76,4.2-.42,1.74-.66,3.72-.72,5.88-.12,1.26,0,2.52.36,3.6,5.1-4.86,9.6-10.5,13.38-16.86.54-.9.66-1.92.48-3.12l-.12-.42c-3.6,1.86-7.14,4.08-10.62,6.72h0Z"/>
    <path class="st1" d="M271.12,399.67l-.22-3.46c-.07-.79-.43-1.37-1.08-1.87-.86-.5-1.58-1.01-2.09-1.51-.43-.5-.58-1.15-.36-1.8,1.01-2.3,2.3-4.18,3.96-5.62,1.01-.94,2.09-1.22,3.31-1.08,2.74.5,5.18,1.66,7.34,3.24.86.86,1.15,1.87.94,2.88-.36,2.09-.65,3.96-.86,5.83,2.67-.79,5.54-1.94,8.57-3.46,1.08-.65,2.16-.43,3.02.5,2.74,2.88,4.82,6.12,6.41,10.01.22.5.22.94,0,1.44s-.5.79-1.01,1.01c-3.31,1.8-6.48,3.6-9.5,5.62-3.38,2.52-6.98,2.95-10.87,1.51l-1.01,2.81,3.96-1.44c1.22-.58,2.38-.43,3.53.36,2.38,1.58,4.25,3.67,5.54,6.41.43,1.01.29,1.87-.29,2.59-2.74,2.88-5.11,5.83-7.06,9,4.39,3.02,9.14,5.47,14.04,7.2,3.38,1.22,6.55,2.66,9.43,4.32.36.14.58.43.72.94l.22.72c.22.36.22.86,0,1.44-.94,2.16-2.45,3.67-4.68,4.54-1.37.58-2.88.72-4.39.5-2.45-.5-4.75-1.15-6.7-1.94-2.02-.79-3.96-1.94-5.76-3.38-2.52-2.09-5.54-4.32-9.14-6.62-1.08,1.3-2.23,2.38-3.46,3.24-1.37.94-2.88,1.66-4.46,2.16-3.53,1.22-6.91,2.02-10.15,2.52-.86.22-1.58.14-2.23-.22-.65-.36-1.22-.86-1.58-1.51-1.15-1.66-1.44-3.74-.86-6.34.86,1.73,1.73,3.17,2.59,4.1.65.65,1.44.86,2.52.5,2.66-1.01,4.97-2.52,6.98-4.39,1.44-1.37,2.81-2.74,3.96-4.39-2.16-1.44-4.61-2.88-7.27-4.1-1.3-.72-2.59-1.01-3.96-.94-1.73,3.74-3.67,7.34-5.83,10.8-2.02,2.66-4.61,4.75-7.7,6.12-1.3.65-2.59,1.51-3.82,2.45-.22.07-.5.14-.86.14-.5-.22-.72-.5-.72-.86-.22-1.44.14-2.66,1.08-3.89.58.29,1.08.36,1.51.29.5-.14.86-.43,1.08-.79,6.62-11.3,9.72-23.62,9.29-36.79-1.37-.86-2.38-2.02-3.17-3.31-.58-.86-.65-1.8-.29-2.81.65-1.22,1.44-2.38,2.23-3.31.43-.43,1.01-.72,1.73-.86.94-.07,1.94-.07,3.31.07,1.15.36,2.3.79,3.31,1.22,1.3,1.08,2.38,2.16,3.02,3.17,2.45-1.01,5.04-2.02,7.78-2.95h0ZM261.32,425.16c2.09.07,3.82.29,5.33.65,2.81.58,5.54,1.51,8.28,2.59,1.15-2.16,2.02-4.61,2.59-7.2-2.59.43-5.11,1.37-7.63,2.74-1.44.72-3.1,1.01-4.68.86-1.37-.14-2.59-.07-3.82.14l-.07.22h0ZM265.14,409.53c-.58,4.32-1.51,8.5-2.81,12.75,2.38-1.44,4.97-2.66,7.78-3.74.79-4.18,1.15-8.21,1.15-12.39-2.02.86-4.1,2.02-6.12,3.38ZM279.97,408.45c.5.07,1.01-.14,1.51-.43,2.16-1.37,3.46-3.17,3.96-5.4-1.01.07-2.59.29-4.46.65-.22,1.73-.58,3.46-1.01,5.18Z"/>
    <path class="st1" d="M257.22,496.12c.24,2.52.12,4.8-.36,6.96-.42,1.2-.48,2.4-.18,3.54.24,1.32-.06,2.46-.96,3.36-.42.54-.96.96-1.62,1.38-.96.54-1.98.54-2.94.06-2.88-1.56-4.74-3.9-5.76-7.14-1.44-4.86-1.56-9.78-.42-14.76,1.62-6.42,3.66-12.84,6.3-19.32.3-.78.54-1.56.6-2.58,0-.48-.18-.9-.48-1.44l-.6-.6c-.54-.54-.72-1.26-.54-2.1.18-.96.72-1.68,1.62-2.04.72-.54,1.5-.48,2.28.18,2.82,2.52,4.98,5.58,6.3,9.3.54,1.56.42,3.12-.42,4.62-2.64,5.04-4.56,10.32-5.7,15.84-.6,2.94-.72,5.76-.36,8.34.72-1.08,1.86-2.34,3.24-3.6h0ZM291.9,474.58c.42.36.66.84.72,1.38,0,.54-.18.96-.54,1.44-1.32,1.2-2.82,1.92-4.68,2.22-4.56.6-9.06,1.86-13.44,3.78-1.32.54-2.58.54-3.84,0-1.02-.42-2.1-1.02-3.12-1.68-.12-.18-.24-.42-.24-.72,0-.36.12-.6.24-.78,4.56-3.66,9.66-6.48,15.24-8.46,1.14-.48,2.34-.54,3.6-.18,2.28.6,4.26,1.62,6.06,3h0ZM278.04,492.04c2.76,2.52,6.06,3.9,9.78,3.96,2.16,0,4.26.48,6.42,1.38.6.42.96.96,1.08,1.62.18,1.2.12,2.28-.18,3.18-.3.84-.72,1.5-1.26,1.98-1.14.54-2.22,1.02-3.3,1.32-2.04.42-4.2.54-6.48.42-1.14-.06-2.22-.48-3.18-1.26-3.24-2.28-5.64-5.28-7.32-8.88-.48-1.26-.72-2.46-.66-3.78.12-1.44.42-2.82.9-4.2.3-.48.54-.72.96-.72.42-.06.72.06,1.02.36.42.54.72,1.14.84,1.68.12,1.2.54,2.22,1.38,2.94h0Z"/>
    <path class="st1" d="M242.7,583.84c2.16-1.44,4.86-2.58,7.98-3.6-2.46,2.4-5.1,3.6-7.98,3.6ZM247.92,576.22c2.16.54,3.96,1.14,5.34,1.68.6.18,1.08.48,1.38.9.9.84,1.44,1.86,1.62,2.94.06.96-.06,1.92-.36,2.76-.3.42-.72.78-1.2,1.02-.36.36-.9.42-1.44.18-1.5-.3-2.88-.78-4.02-1.32-.6-.18-1.14-.3-1.62-.24-2.04,0-2.34-.42-.9-1.32,0-.96,1.14-1.08,3.48-.36-.66-.72-1.56-.78-2.82-.18-1.02-1.38-2.34-2.7-3.78-3.84-.48-.18-.72-.6-.72-1.14-.18-.6.06-.96.66-.96,1.44-.42,2.94-.42,4.38-.12h0ZM245.82,585.04v-3.06c3,2.1,3,3.06,0,3.06Z"/>
    <path class="st1" d="M267.18,624.88c2.64-.24,5.1.42,7.5,1.86,1.38.9,2.46,2.16,3.42,3.6,1.02,2.04,1.8,4.26,2.34,6.72.9,5.22.6,10.44-.9,15.6-.96,3.3-3.06,5.76-6.3,7.38-3.42,1.8-6.6,3.54-9.6,5.22,4.44-6.48,7.38-13.44,8.7-20.64.84-3.78.84-7.68.06-11.58-.24-1.32-.84-2.4-1.98-3.18-1.02-.6-1.92-.54-2.94.18-2.88,1.74-5.34,3.66-7.5,5.7-.84.72-1.8,1.2-2.88,1.56-1.14.42-2.34.42-3.42-.06-2.1-.66-3.36-2.1-3.72-4.2-.24-1.62,0-3.12.66-4.44.36-.78,1.02-1.32,1.86-1.62.18-.06.48-.06.9-.06.3.3.54.54.6.84l.18.54c4.2-1.92,8.52-3.12,13.02-3.42h0ZM264.24,621.46c.96-1.14,2.16-1.92,3.48-2.4-.84-1.26-1.5-2.34-1.8-3.48-.36-1.08-.36-2.16-.06-3.36.9.72,1.86,1.08,2.88,1.08,2.64,0,5.16.42,7.56,1.14,1.32.72,2.46,1.5,3.36,2.28.6.6.96,1.32,1.08,2.22.06.84-.12,1.68-.6,2.46-.54.72-1.26,1.32-2.22,1.74-1.02.42-1.98.48-3,.18l-4.8-.96c-1.44-.24-2.88-.24-4.2.06.36-.54.72-.78,1.02-.78-3.42,1.86-4.38,1.8-2.7-.18h0Z"/>
    <path class="st1" d="M261.12,702.94c-.78.3-1.8.48-3.12.54-1.68.06-3.3-.18-4.74-.78-1.62-.78-3.06-1.86-4.2-3.3-.3-.3-.36-.66-.18-1.08.06-.3.3-.54.6-.6,5.64-1.8,11.28-3.3,16.92-4.5.06-.36-.06-.6-.42-.78l-.84-.42c-.66-.3-.84-.84-.6-1.5.54-1.32,1.38-2.34,2.46-3.06.78-.54,1.68-.6,2.52-.18,1.14.66,2.1,1.44,2.82,2.16.42.66.6,1.2.6,1.68l.12,1.02,1.26-.12c1.2-.12,2.34.18,3.3.84,1.62.72,2.7,1.98,3.24,3.9.24.84-.06,1.44-.84,1.8-1.2.6-2.52.9-3.72,1.08-1.02.06-1.86.3-2.58.6l.12,4.14c.48-.12,1.02,0,1.68.36,1.68.9,2.94,2.16,3.66,4.02.42,1.14.18,2.16-.84,3l-3.84,2.64c.06,2.88.3,5.7.6,8.52.18,1.44-.06,2.88-.6,4.14,3,1.5,5.76,3.36,8.28,5.52.54.48.78,1.14.66,1.92-.12,1.14-.54,2.16-1.26,3.12-.36.42-.9.6-1.44.48-1.92-.66-3.78-1.44-5.46-2.58-.9-.54-2.04-1.26-3.6-2.1-2.4,1.8-5.1,3.18-8.1,4.14-.9.3-1.8.36-2.7.24-2.04-.42-3.9-1.2-5.52-2.52-1.92-1.38-3.48-3.24-4.5-5.4-.66-1.08-1.02-2.52-1.2-4.08-.06-.9.24-1.62.78-2.4.54-.72,1.32-1.2,2.16-1.44,1.8-.48,3.72-.54,5.76-.18,2.88.42,5.64,1.02,8.16,1.74.48-2.16.6-4.32.42-6.6-1.74.54-3.48.48-5.16-.24-2.34-1.2-4.02-3.06-5.04-5.58-.3-.9-.12-1.86.48-2.88l1.44,1.92c.42.54.9.84,1.62.9.66.12,1.32,0,1.8-.42,1.68-1.26,3.3-2.22,4.98-2.88l-.3-5.88c-2.04,1.26-4.5,2.34-7.38,3.12l1.74-2.04ZM256.38,727.3c-.06-.06-.12,0-.18.06,0,.06,0,.12.06.18.84,1.32,1.98,2.4,3.24,3.3.3.18.66.18.96.12,1.2-.42,2.16-.9,2.94-1.5-2.58-.96-4.92-1.68-7.02-2.16Z"/>
    <path class="st1" d="M259.32,785.92c.24,5.04,1.26,9.66,3.06,13.86,1.08,2.58,1.62,5.16,1.62,7.8,0,.54-.18.9-.54,1.2-.36.3-.84.48-1.44.42-2.94-.6-5.7-1.86-8.1-3.72s-4.32-4.2-5.58-7.08c-2.16-4.98-3.66-10.32-4.38-16.02-.48-3.78,0-7.74,1.38-11.64,3.36,2.46,5.88,5.46,7.62,8.94.66,1.5.9,3,.84,4.56-.18,3.9.6,7.32,2.4,10.14.3-2.4,1.32-5.22,3.12-8.46h0ZM281.04,771.22c3.24,1.44,5.88,3.48,8.16,6.06,2.22,2.64,3.78,5.64,4.68,9.06.84,3.36.06,6.36-2.4,9-.66.54-1.38.6-2.1.06-2.4-1.92-3.66-4.38-3.84-7.38-.12-3.06-1.14-5.76-3.24-8.04-2.04-2.4-4.2-5.22-6.42-8.4,1.68-1.02,3.48-1.14,5.16-.36Z"/>
    <path class="st1" d="M258.37,886.1c4.46-3.02,6.84-7.13,7.06-12.38,0-.58.22-1.15.65-1.66s.86-.79,1.51-.86c1.22-.36,2.23-.43,3.31-.36,1.3-1.37,2.3-2.45,3.1-3.24-5.4,1.87-10.73,4.61-16.06,8.35-.22.36-.5.65-1.08.72-.5,0-1.01-.22-1.37-.5-.79-1.22-1.01-2.52-.79-3.82,2.95-2.88,5.33-5.83,7.06-9l-7.2,2.81c-.94.36-1.87.36-2.81-.07.79-1.8,1.87-3.17,3.31-4.25,1.15-.86,2.38-1.58,3.6-2.02,2.09-.58,3.74-.94,4.9-1.08,1.01-4.46,1.87-9.14,2.52-13.9.14-1.01-.07-1.87-.58-2.66-.72-.79-1.44-1.73-2.16-2.74.72-1.73,1.58-3.02,2.66-4.03.79-1.01,1.8-1.22,2.95-.86,3.17,1.08,6.05,2.45,8.78,4.18,1.3.94,1.66,2.09,1.15,3.74-1.94,4.39-3.82,9-5.69,13.68,5.47-1.73,11.45-3.89,18-6.62,1.37-.58,2.66-.58,3.96,0,5.69,2.52,9.72,6.55,12.03,12.24.43,1.37.5,2.74.22,4.25-.5,1.66-1.01,3.38-1.66,5.04-1.22,3.24-1.94,6.62-2.02,10.15-.29,4.68-1.3,9.14-3.24,13.11-.65,1.22-1.44,2.38-2.52,3.38-1.73,1.94-3.82,3.31-6.12,4.25-1.87.79-3.74.65-5.54-.36-3.74-3.74-7.71-7.06-11.95-9.87-2.16-1.73-4.1-4.03-5.54-6.91,3.67,2.02,6.91,3.53,9.86,4.46,1.15.43,2.38.43,3.67-.07,1.3-.43,2.16-1.01,2.52-1.94l-3.1.22c-4.54-1.37-8.86-3.17-12.96-5.47-3.89,3.02-7.63,5.62-11.09,7.63l.86,3.6c.94,2.59.36,4.97-1.51,7.13-.94.86-1.94.86-2.95,0-4.03-3.1-6.19-7.27-6.62-12.24-.36-2.52-1.3-4.82-2.59-6.84-1.44-1.44-2.52-2.67-3.31-3.82-1.51-2.16-1.66-4.39-.43-6.7,1.73-3.67,3.89-7.27,6.34-10.58.65,0,1.15.22,1.66.58.43.43.72.86.79,1.51.22,2.38.94,4.61,2.09,6.55,1.51,2.16,2.38,4.39,2.52,6.7.29,4.18,1.22,8.14,2.66,11.88.22-.43.5-.86,1.15-1.3h0ZM278.68,861.41c1.01-.58,2.09-.72,3.17-.29,2.02.58,3.38,1.87,4.32,3.89-4.68,2.09-8.86,4.25-12.46,6.55,1.15.58,1.73,1.73,1.73,3.31-.65,1.37-1.15,2.3-1.58,2.95.07,0,.94.07,2.52.29,1.66.22,2.59.29,3.1.36,1.51.36,2.52,1.08,3.31,2.3,1.08,1.58,1.94,3.02,2.59,4.25,2.3-7.71,3.82-15.91,4.75-24.84-.43-1.22-1.22-2.16-2.45-2.81-1.22-.65-2.52-.79-3.74-.29-4.83,1.01-8.93,2.02-12.39,3.24l-1.73,4.75c3.02-.94,5.98-2.16,8.86-3.67h0Z"/>
    <path class="st1" d="M325.69,883.37c.86-.07,1.58.07,2.38.43,1.44.86,2.59,1.87,3.6,3.1.58.79,1.01,1.51,1.15,2.3.86,2.45.36,4.46-1.44,6.05-2.16,2.02-4.97,2.74-8.35,2.3-1.8-.22-3.24-.86-4.46-2.09-1.94-2.23-2.23-4.82-.86-7.78,1.08-2.3,2.74-4.1,4.9-5.47l1.08.72c.29.29.72.43,1.3.43h.72-.02ZM321.59,892.3c.36.94,1.01,1.37,1.8,1.37,1.66.14,3.1-.36,4.1-1.51.72-.79.94-1.58.65-2.45-.36-.72-.72-1.3-1.15-1.66-.72-.72-1.58-1.08-2.38-1.08-.86-.07-1.51.14-2.09.72-1.3,1.3-1.58,2.88-.94,4.61h.01Z"/>
  </g>
  <g>
    <path class="st0" d="M40.35,51c2.95.07,5.76-.5,8.35-1.87,1.51-.94,3.1-.86,4.61.14,2.38,1.37,3.53,3.46,3.46,6.34-.07,1.73-.94,3.1-2.45,4.1-4.9,3.38-9.22,6.98-13.03,10.87,5.54-1.8,12.03-3.74,19.44-5.62,1.3-.36,2.38-1.01,3.24-2.02.79-.86,1.8-1.3,2.95-1.3,1.22-.07,2.3.22,3.24.86,1.94,1.66,3.31,3.67,4.1,6.19.14.72,0,1.44-.43,2.09-1.44,1.58-3.1,2.88-4.97,3.89-3.89,1.87-7.13,4.32-9.86,7.42-1.73,2.02-3.31,4.46-4.61,7.06-.94,2.09-.72,4.03.65,5.9.58.94,1.44,1.87,2.38,2.67,2.67-2.16,4.75-5.26,6.26-9.29.65,4.18.22,7.85-1.3,11.02-.79,1.8-1.08,3.6-1.01,5.47,0,1.51-.65,2.74-1.94,3.6-.79.79-1.66.94-2.74.5-3.74-1.3-6.48-3.74-8.21-7.27-1.94-3.82-2.45-7.92-1.87-12.17.5-4.46,1.8-8.42,3.82-11.88-7.06,2.52-14.54,5.76-22.32,9.58-2.66,1.3-5.33,1.44-8.06.36-1.8-.65-3.38-1.8-4.68-3.6-1.37-1.87-1.37-3.74-.07-5.83,1.08-1.58,2.45-2.52,4.1-2.81,1.37-.22,2.74-.43,4.1-.5,1.37-.07,2.3-.5,3.02-1.3,4.39-4.46,8.78-8.57,13.25-12.46-.86.07-2.09.36-3.67.72-.72.22-1.44.22-2.09-.07-.79-.29-1.3-.79-1.66-1.51-1.08-1.73-1.37-3.74-.79-6.05.65-2.16,1.8-4.18,3.53-6.12,1.37,1.87,3.1,2.81,5.26,2.88h0Z"/>
    <path class="st0" d="M51.87,199.18c-5.18,6.7-11.09,12.82-17.86,18.22.22,4.1.07,8.42-.5,13.03-.22.86-.5,1.8-.94,2.66-.5.79-1.15,1.51-1.87,2.09-.5.07-.94.14-1.3.07-.43-.07-.79-.36-1.01-.79-1.58-4.1-2.52-8.21-2.59-12.38-.94.65-2.3,1.15-3.89,1.66-1.01.22-1.94.07-2.74-.36-2.09-1.08-3.31-2.81-3.82-5.11-.29-1.22-.07-2.45.72-3.46,3.53-4.83,7.06-8.93,10.58-12.46-.65.07-1.44.36-2.52,1.01-1.44.58-2.88.86-4.39.65-.65-.22-1.22-.5-1.66-1.01l-.5-.79c-.36-.72-.29-1.37.07-1.8,3.02-3.75,6.7-6.55,10.94-8.35.36-2.66,1.01-5.69,1.94-9,.22-.86.29-1.73.14-2.52-.22-1.87-.07-3.67.29-5.26.07-.43.36-.79.79-1.08.43-.22.86-.14,1.37.22,2.81,1.87,5.62,4.18,8.42,6.91,1.44,1.44,1.8,3.02,1.15,4.82-.79,1.8-1.66,3.31-2.45,4.61.79,1.08,1.87,2.09,3.1,3.02.36.22.65.58.72,1.15.07.36-.07.79-.43,1.3-1.51,1.73-3.31,3.31-5.47,4.61-1.73,1.15-2.81,2.59-3.17,4.32,6.91-3.96,13.46-8.93,19.59-14.98.86-.65,1.44-1.58,1.73-2.88.43-1.37.94-2.52,1.44-3.74.22-.36.5-.72.86-.86.43-.22.94-.22,1.44,0,2.16.65,3.89,1.94,5.11,3.82.79,1.08,1.01,2.3.72,3.67-.36,1.22-.86,2.16-1.51,3.1-.72,1.15-1.08,2.23-1.08,3.46-.22,5.11.29,10.08,1.44,14.91.65,2.45,1.73,4.82,3.02,7.13,2.38,3.6,5.33,6.62,9,9.07.5.22.72.58.72,1.01,0,.5-.22.86-.72,1.08-.94.65-2.16,1.15-3.6,1.66-1.94.5-3.82.22-5.62-.79-3.6-2.45-6.55-5.54-8.86-9.29-1.44-2.66-2.38-5.4-2.74-8.35-.58-6.26-.72-12.31-.29-18.15-1.3,1.08-2.66,2.52-3.82,4.18l.05-.03Z"/>
    <path class="st0" d="M33.15,306.82c-.29-.5-.58-1.08-.94-1.94-.43-1.22-.36-2.38.29-3.46.5-.79,1.01-1.51,1.58-2.09.36-.5.94-.72,1.66-.72.65,0,1.22.22,1.66.65,2.09,1.87,3.89,3.96,5.54,6.19.58.72.65,1.58.29,2.59-.79,1.44-1.3,2.95-1.44,4.54,1.37.65,2.52,1.58,3.6,2.66.65.72.94,1.51.86,2.3-.07.72-.43,1.44-1.08,2.02-.36.29-1.73,1.3-4.1,3.1-2.38,1.8-3.67,2.81-3.89,3.02-2.23,4.83-4.03,9.87-5.69,15.12-1.08,3.89-1.51,7.78-1.3,11.88.07,1.44-.22,2.95-.86,4.39-.36,1.22-1.22,1.87-2.59,2.02-.94.22-1.8.07-2.66-.43-.86-.58-1.44-1.3-1.73-2.16-.65-1.51-.86-3.1-.79-4.97.65-7.06,2.02-13.75,4.1-20.02l-.65.43c-1.51.79-2.88.86-4.32.14-2.74-1.51-4.54-3.6-5.62-6.34-.65-1.37-.72-2.66-.29-3.96.07-.86.5-1.22,1.22-1.3.58-.14,1.15,0,1.58.29.5.5,1.15.86,1.8,1.01,3.31-1.01,6.7-2.45,10.08-4.03,1.22-4.18,2.38-7.78,3.67-10.95l.02.02ZM44.24,330.8c4.9-3.96,10.15-6.98,15.99-9,2.66-1.01,5.33-.72,7.99.94,1.44.94,2.52,2.23,3.31,3.89.36,1.01.07,1.8-.72,2.38-1.08.79-2.45,1.22-3.96,1.51-5.26,1.08-10.3,2.38-15.19,4.1-1.51.43-2.88.65-4.1.58-1.73-.07-3.38-.72-4.82-2.09.36-.86.86-1.66,1.51-2.3h-.01ZM57.63,342.53c3.46,2.45,7.27,3.46,11.59,2.81,1.94-.36,3.53.29,4.68,1.94.94,1.08,1.58,2.38,1.87,3.74.29,1.22-.07,2.09-1.01,2.59-2.59,1.73-5.4,2.52-8.57,2.23-4.9-.36-9.14-2.38-12.6-5.98-2.16-2.16-3.1-4.9-2.67-8.06.14-1.58.72-3.02,1.58-4.25.29-.5.65-.65,1.15-.5.43,0,.72.29.94.94.43,1.87,1.37,3.46,3.02,4.54h.02ZM65.34,301.27c1.08-.65,2.09-.65,3.24.07,1.51.79,2.74,1.58,3.89,2.59,1.15,1.08,1.94,2.16,2.3,3.53.43,1.08.22,1.94-.58,2.66-.72.86-1.58,1.08-2.67.65-1.87-.72-3.67-1.8-5.33-3.1-1.01-1.08-2.16-1.87-3.6-2.38-.43.36-.72.86-.79,1.51.94.72,1.73,1.37,2.38,1.94.43.43.72,1.15.72,1.94,0,1.08-.5,1.87-1.44,2.66-1.01.72-2.09.72-3.1.07-1.08-.5-1.94-1.22-2.74-2.09l-3.24-3.38c-.43-.5-.72-1.01-.94-1.44-.22-.65-.07-1.15.43-1.66.65-.36,1.22-.58,1.66-.65.94-.14,1.8-.07,2.67.22l1.08.72c2.09-1.66,4.1-2.95,6.05-3.89v.03Z"/>
    <path class="st0" d="M28.97,467.24c-.58,3.31-1.01,6.19-1.37,8.71,0,1.01-.36,2.09-1.08,3.1-.29.29-.65.58-1.01.86-.58.14-1.08.14-1.58,0-1.22-.43-2.38-.94-3.53-1.44-.79-.43-1.37-1.08-1.87-1.8-1.66-2.59-2.66-5.4-3.1-8.5-.43-3.53-.43-6.99.07-10.3.5-4.25,1.37-8.5,2.59-12.82.65-2.74,1.08-5.18,1.3-7.34,0-.72.22-1.37.65-2.02.65-.86,1.37-1.58,2.3-2.23.29-.22.72-.29,1.22-.14.79.36,1.3.79,1.58,1.37,1.73,2.74,3.17,5.83,4.18,9.14.36,1.37.43,2.74.14,4.18l-3.31,11.81c-.22.86-.5,2.02-.72,3.6.65-.94,1.73-2.38,3.17-4.32.79,2.74.86,5.54.36,8.14h.01ZM53.46,432.75c-.94-1.15-1.44-2.02-1.8-2.38-.72-1.01-.72-1.94.07-3.02.72-1.15,1.73-1.51,2.95-1.08,2.3.86,4.32,2.02,6.26,3.38.79.5,1.3,1.3,1.44,2.16,1.51.86,2.88,1.66,4.25,2.3.94.5,1.87,1.01,2.67,1.73,1.87,1.66,3.46,3.6,4.61,5.76.29.36.36.79.14,1.15-.14.5-.43.72-.79.72-1.44.65-2.88,1.01-4.25,1.08-1.73.07-3.6.36-5.62,1.01l.43,4.03c.58,3.96.79,8.42.65,13.11-.07,3.82-.5,7.42-1.37,10.73-1.08,4.82-3.74,8.5-7.92,10.87-3.6,2.16-7.85,3.31-12.6,3.31,1.08-1.08,1.94-2.16,2.52-3.31,3.46-6.34,6.19-13.11,8.14-20.23,1.15-3.89,1.58-7.92,1.3-12.03l-.14-4.18c-2.74.79-5.69,1.73-8.79,2.74-1.22.36-2.3.58-3.46.58-1.08-.07-2.09-.22-3.02-.43-.65-.22-1.22-.65-1.73-1.08-.58-.72-.79-1.44-.43-2.16.43-.94,1.01-1.73,1.94-2.23,5.11-3.17,10.15-5.54,15.05-7.2,0,0-.5-5.33-.5-5.33ZM62.82,435.63l.36-.14c-.14-.22-.29-.43-.43-.5l.07.65h0Z"/>
    <path class="st0" d="M44.6,569.55c-3.31,1.01-7.13,1.95-11.23,2.74-2.88.5-5.76.5-8.64,0-2.02-.29-3.53-1.29-4.75-2.88-.65-.94-1.22-2.16-1.66-3.53-.29-1.15-.36-2.23-.22-3.46.22-1.51.79-2.74,1.8-3.89.65-.5,1.37-.65,2.02-.29.86.43,1.58,1.08,2.09,2.02.36.72.94,1.15,1.66,1.15,8.93-.36,16.42-1.01,22.54-2.09,5.83-1.01,11.59-2.59,17.35-4.9,1.08-.36,2.02-.29,3.02.36,2.16,1.29,3.96,3.1,5.33,5.47.36.72.29,1.37-.29,1.94-.72.58-1.44.94-2.09,1.15-1.73.43-3.38,1.15-4.75,2.38-3.02,2.23-5.18,5.04-6.41,8.5-1.51,4.46-2.59,8.71-3.46,12.89-.94,4.97-.65,9.87.86,14.76.43,1.22.86,2.16,1.51,2.81l3.38-2.95c.29,2.38.14,4.61-.43,6.84-.5,1.87-1.8,3.1-3.89,3.6-1.08.36-2.09.29-2.88-.36-3.96-2.59-6.99-6.12-9.07-10.66-.72-1.73-1.22-3.6-1.37-5.54-.07-1.87.07-3.89.36-5.83.86-5.04,2.16-10.08,4.03-14.98,1.37-3.31,2.95-6.12,4.61-8.35l-9.43,3.1h.01ZM66.2,570.27c.58-.58,1.3-1.37,2.3-2.38,1.08-.79,2.09-1.08,3.31-.86,1.44.29,2.59.79,3.6,1.44,1.51,1.15,2.66,2.09,3.38,2.88.94.94,1.37,2.02,1.15,3.38-1.15.58-2.23.65-3.24.14-1.44-.65-2.74-1.51-3.67-2.38-.58-.5-1.22-1.15-2.02-1.94-.07-.07-.22-.07-.43,0-.07,0-.14.07-.22.29l-.29,2.3c.43.94.86,2.02,1.22,3.1.22.72.22,1.44-.07,2.16-.43.86-1.08,1.15-2.16.79-1.87-.72-3.53-2.02-4.68-3.6-1.22-1.66-2.02-3.53-2.3-5.83,1.66,0,2.95.14,4.1.5h.02Z"/>
    <path class="st0" d="M34.3,706.78c.29,6.05,1.51,11.59,3.67,16.63,1.3,3.1,1.94,6.19,1.94,9.36,0,.65-.22,1.08-.65,1.44s-1.01.58-1.73.5c-3.53-.72-6.84-2.23-9.72-4.46-2.88-2.23-5.18-5.04-6.7-8.5-2.59-5.98-4.39-12.38-5.26-19.22-.58-4.54,0-9.29,1.66-13.97,4.03,2.95,7.06,6.55,9.15,10.73.79,1.8,1.08,3.6,1.01,5.47-.22,4.68.72,8.79,2.88,12.17.36-2.88,1.58-6.26,3.74-10.15h.01ZM60.37,689.14c3.89,1.73,7.06,4.18,9.79,7.27,2.67,3.17,4.54,6.77,5.62,10.87,1.01,4.03.07,7.63-2.88,10.8-.79.65-1.66.72-2.52.07-2.88-2.3-4.39-5.26-4.61-8.86-.14-3.67-1.37-6.91-3.89-9.65-2.45-2.88-5.04-6.27-7.71-10.08,2.02-1.22,4.18-1.37,6.19-.43h.01Z"/>
    <path class="st0" d="M34.3,832.78c.29,6.05,1.51,11.59,3.67,16.63,1.3,3.1,1.94,6.19,1.94,9.36,0,.65-.22,1.08-.65,1.44s-1.01.58-1.73.5c-3.53-.72-6.84-2.23-9.72-4.46-2.88-2.23-5.18-5.04-6.7-8.5-2.59-5.98-4.39-12.38-5.26-19.22-.58-4.54,0-9.29,1.66-13.97,4.03,2.95,7.06,6.55,9.15,10.73.79,1.8,1.08,3.6,1.01,5.47-.22,4.68.72,8.79,2.88,12.17.36-2.88,1.58-6.26,3.74-10.15h.01ZM60.37,815.14c3.89,1.73,7.06,4.18,9.79,7.27,2.67,3.17,4.54,6.77,5.62,10.87,1.01,4.03.07,7.63-2.88,10.8-.79.65-1.66.72-2.52.07-2.88-2.3-4.39-5.26-4.61-8.86-.14-3.67-1.37-6.91-3.89-9.65-2.45-2.88-5.04-6.27-7.71-10.08,2.02-1.22,4.18-1.37,6.19-.43h.01Z"/>
    <path class="st0" d="M96.44,849.84c.86-.07,1.58.07,2.38.43,1.44.87,2.59,1.87,3.6,3.1.58.79,1.01,1.51,1.15,2.3.86,2.45.36,4.46-1.44,6.05-2.16,2.02-4.97,2.74-8.35,2.3-1.8-.22-3.24-.86-4.46-2.09-1.94-2.23-2.23-4.82-.86-7.78,1.08-2.3,2.74-4.1,4.9-5.47l1.08.72c.29.29.72.43,1.3.43h.72-.02ZM92.33,858.77c.36.94,1.01,1.37,1.8,1.37,1.66.14,3.1-.36,4.1-1.51.72-.79.94-1.58.65-2.45-.36-.72-.72-1.3-1.15-1.66-.72-.72-1.58-1.08-2.38-1.08-.86-.07-1.51.14-2.09.72-1.3,1.3-1.58,2.88-.94,4.61h0Z"/>
  </g>
</svg>