<?xml version="1.0" encoding="UTF-8"?>
<svg id="_レイヤー_1" xmlns="http://www.w3.org/2000/svg" version="1.1" viewBox="0 0 502.7 502.2">
  <!-- Generator: Adobe Illustrator 30.1.0, SVG Export Plug-In . SVG Version: 2.1.1 Build 136)  -->
  <defs>
    <style>
      .st0 {
        fill: #fff;
      }
    </style>
  </defs>
  <path d="M499.2,259l-239.8,239.8c-4.6,4.6-12.2,4.6-16.8,0L3.5,259.5c-4.6-4.6-4.6-12.2,0-16.8L242.7,3.5c4.6-4.6,12.1-4.7,16.7,0,39.1,38.4,202.7,199.5,240,239,4.4,4.7,4.3,12-.2,16.6h0Z"/>
  <g>
    <path class="st0" d="M187.6,233.9c-3.8-10.8-14.4-19.6-25.6-20.8s-21.1,7.2-20.5,19.1c14-4,30.1-3.3,46.2,1.6h0Z"/>
    <path class="st0" d="M226.8,251c-.7-9.2-8.8-17.8-18-19.4-6-1-10.9,1.2-13.6,5.3,10.8,4.1,21.4,10.3,31.4,18.1.2-1.3.4-2.7.2-4.1h0Z"/>
    <path class="st0" d="M252.6,283.6c1.4-1.8,2.2-4.3,2.1-7.1-.4-7.3-6.7-14.4-14.2-15.9-3.3-.6-6.1,0-8.4,1.3,4.9,4.1,9.7,8.7,14.2,13.8,2.3,2.6,4.4,5.2,6.4,7.8h0Z"/>
    <path class="st0" d="M217.4,258.8c4.9,3.5,9.8,7.6,14.4,12.1,2.4,2.3,4.6,4.7,6.6,7,30.9,35.3,36.6,81.8,11.8,107.3L117.2,255.2c6.6-6.9,14.9-11.5,24.1-14.1,13.4-3.8,28.7-3.2,44,1.6l1,.3c10.3,3.3,20.8,8.5,30.6,15.5l.4.3h0Z"/>
  </g>
  <g>
    <path class="st0" d="M315.4,267.4c3.8,10.7,14.3,19.5,25.5,20.5,12.3,1.2,21.1-7.2,20.5-19.1-14,4-29.9,3.5-46-1.4h0Z"/>
    <path class="st0" d="M276.3,250.7c.7,9.1,8.7,17.7,17.9,19.1,5.9,1,10.9-1.3,13.5-5.4-10.7-4.1-21.3-10.1-31.2-17.9-.3,1.3-.4,2.7-.2,4.1h0Z"/>
    <path class="st0" d="M250.6,218.2c-1.4,1.8-2.2,4.3-2.1,7.1.4,7.3,6.6,14.3,14.1,15.7,3.3.6,6.1,0,8.3-1.4-4.9-4.1-9.7-8.6-14-13.7-2.2-2.5-4.4-5.1-6.4-7.8h0Z"/>
    <path class="st0" d="M285.7,242.8c-4.9-3.5-9.8-7.5-14.3-12-2.3-2.3-4.5-4.6-6.6-6.9-30.8-35-36.3-81.3-11.5-106.9l132.1,128.9c-6.6,6.9-14.8,11.6-24,14.2-13.3,3.8-28.6,3.3-43.9-1.3l-1-.3c-10.3-3.3-20.7-8.3-30.4-15.3l-.4-.3h0Z"/>
  </g>
</svg>